<?xml version="1.0" encoding="utf-8" standalone="no"?>
<!DOCTYPE svg PUBLIC "-//W3C//DTD SVG 1.1//EN"
  "http://www.w3.org/Graphics/SVG/1.1/DTD/svg11.dtd">
<!-- Created with matplotlib (https://matplotlib.org/) -->
<svg height="269.424pt" version="1.1" viewBox="0 0 405 269.424" width="405pt" xmlns="http://www.w3.org/2000/svg" xmlns:xlink="http://www.w3.org/1999/xlink">
 <defs>
  <style type="text/css">
*{stroke-linecap:butt;stroke-linejoin:round;}
  </style>
 </defs>
 <g id="figure_1">
  <g id="patch_1">
   <path d="M 0 269.424 
L 405 269.424 
L 405 0 
L 0 0 
z
" style="fill:#ffffff;"/>
  </g>
  <g id="patch_2">
   <path d="M 7.2 262.224 
L 397.8 262.224 
L 397.8 7.2 
L 7.2 7.2 
z
" style="fill:#ffffff;"/>
  </g>
  <g id="pane3d_1">
   <g id="patch_3">
    <path d="M 207.778378 141.735182 
L 359.346993 191.865884 
L 367.452267 67.424925 
L 207.778378 22.427424 
" style="fill:#f2f2f2;opacity:0.5;stroke:#f2f2f2;stroke-linejoin:miter;"/>
   </g>
  </g>
  <g id="pane3d_2">
   <g id="patch_4">
    <path d="M 207.778378 141.735182 
L 56.209763 191.865884 
L 48.10449 67.424925 
L 207.778378 22.427424 
" style="fill:#e6e6e6;opacity:0.5;stroke:#e6e6e6;stroke-linejoin:miter;"/>
   </g>
  </g>
  <g id="pane3d_3">
   <g id="patch_5">
    <path d="M 207.778378 141.735182 
L 56.209763 191.865884 
L 207.778378 248.643025 
L 359.346993 191.865884 
" style="fill:#ececec;opacity:0.5;stroke:#ececec;stroke-linejoin:miter;"/>
   </g>
  </g>
  <g id="axis3d_1">
   <g id="line2d_1">
    <path d="M 359.346993 191.865884 
L 207.778378 248.643025 
" style="fill:none;stroke:#000000;stroke-linecap:square;stroke-width:0.8;"/>
   </g>
   <g id="text_1">
    <!-- F1 -->
    <defs>
     <path d="M 9.8125 72.90625 
L 51.703125 72.90625 
L 51.703125 64.59375 
L 19.671875 64.59375 
L 19.671875 43.109375 
L 48.578125 43.109375 
L 48.578125 34.8125 
L 19.671875 34.8125 
L 19.671875 0 
L 9.8125 0 
z
" id="DejaVuSans-70"/>
     <path d="M 12.40625 8.296875 
L 28.515625 8.296875 
L 28.515625 63.921875 
L 10.984375 60.40625 
L 10.984375 69.390625 
L 28.421875 72.90625 
L 38.28125 72.90625 
L 38.28125 8.296875 
L 54.390625 8.296875 
L 54.390625 0 
L 12.40625 0 
z
" id="DejaVuSans-49"/>
    </defs>
    <g transform="translate(303.375242 248.496691)scale(0.1 -0.1)">
     <use xlink:href="#DejaVuSans-70"/>
     <use x="57.519531" xlink:href="#DejaVuSans-49"/>
    </g>
   </g>
   <g id="Line3DCollection_1">
    <path d="M 353.551297 194.036934 
L 201.961057 143.659237 
L 201.668361 24.149281 
" style="fill:none;stroke:#b0b0b0;stroke-width:0.8;"/>
    <path d="M 337.027231 200.226799 
L 185.384809 149.141764 
L 184.250055 29.057912 
" style="fill:none;stroke:#b0b0b0;stroke-width:0.8;"/>
    <path d="M 320.263198 206.506555 
L 168.582151 154.699174 
L 166.581696 34.03701 
" style="fill:none;stroke:#b0b0b0;stroke-width:0.8;"/>
    <path d="M 303.253931 212.878174 
L 151.548414 160.333013 
L 148.657861 39.088104 
" style="fill:none;stroke:#b0b0b0;stroke-width:0.8;"/>
    <path d="M 285.994011 219.343688 
L 134.278798 166.044869 
L 130.472969 44.212766 
" style="fill:none;stroke:#b0b0b0;stroke-width:0.8;"/>
    <path d="M 268.477855 225.905186 
L 116.768368 171.836372 
L 112.021274 49.412615 
" style="fill:none;stroke:#b0b0b0;stroke-width:0.8;"/>
    <path d="M 250.699715 232.564823 
L 99.012053 177.709201 
L 93.296862 54.689319 
" style="fill:none;stroke:#b0b0b0;stroke-width:0.8;"/>
    <path d="M 232.653669 239.324817 
L 81.004637 183.66508 
L 74.293641 60.044593 
" style="fill:none;stroke:#b0b0b0;stroke-width:0.8;"/>
    <path d="M 214.333615 246.187453 
L 62.740756 189.705785 
L 55.005337 65.480206 
" style="fill:none;stroke:#b0b0b0;stroke-width:0.8;"/>
   </g>
   <g id="xtick_1">
    <g id="line2d_2">
     <path d="M 352.263632 193.609007 
L 356.130485 194.894071 
" style="fill:none;stroke:#000000;stroke-linecap:square;stroke-width:0.8;"/>
    </g>
    <g id="text_2">
     <!-- 70 -->
     <defs>
      <path d="M 8.203125 72.90625 
L 55.078125 72.90625 
L 55.078125 68.703125 
L 28.609375 0 
L 18.3125 0 
L 43.21875 64.59375 
L 8.203125 64.59375 
z
" id="DejaVuSans-55"/>
      <path d="M 31.78125 66.40625 
Q 24.171875 66.40625 20.328125 58.90625 
Q 16.5 51.421875 16.5 36.375 
Q 16.5 21.390625 20.328125 13.890625 
Q 24.171875 6.390625 31.78125 6.390625 
Q 39.453125 6.390625 43.28125 13.890625 
Q 47.125 21.390625 47.125 36.375 
Q 47.125 51.421875 43.28125 58.90625 
Q 39.453125 66.40625 31.78125 66.40625 
z
M 31.78125 74.21875 
Q 44.046875 74.21875 50.515625 64.515625 
Q 56.984375 54.828125 56.984375 36.375 
Q 56.984375 17.96875 50.515625 8.265625 
Q 44.046875 -1.421875 31.78125 -1.421875 
Q 19.53125 -1.421875 13.0625 8.265625 
Q 6.59375 17.96875 6.59375 36.375 
Q 6.59375 54.828125 13.0625 64.515625 
Q 19.53125 74.21875 31.78125 74.21875 
z
" id="DejaVuSans-48"/>
     </defs>
     <g transform="translate(357.704474 213.397612)scale(0.1 -0.1)">
      <use xlink:href="#DejaVuSans-55"/>
      <use x="63.623047" xlink:href="#DejaVuSans-48"/>
     </g>
    </g>
   </g>
   <g id="xtick_2">
    <g id="line2d_3">
     <path d="M 335.738582 199.792681 
L 339.608416 201.096344 
" style="fill:none;stroke:#000000;stroke-linecap:square;stroke-width:0.8;"/>
    </g>
    <g id="text_3">
     <!-- 75 -->
     <defs>
      <path d="M 10.796875 72.90625 
L 49.515625 72.90625 
L 49.515625 64.59375 
L 19.828125 64.59375 
L 19.828125 46.734375 
Q 21.96875 47.46875 24.109375 47.828125 
Q 26.265625 48.1875 28.421875 48.1875 
Q 40.625 48.1875 47.75 41.5 
Q 54.890625 34.8125 54.890625 23.390625 
Q 54.890625 11.625 47.5625 5.09375 
Q 40.234375 -1.421875 26.90625 -1.421875 
Q 22.3125 -1.421875 17.546875 -0.640625 
Q 12.796875 0.140625 7.71875 1.703125 
L 7.71875 11.625 
Q 12.109375 9.234375 16.796875 8.0625 
Q 21.484375 6.890625 26.703125 6.890625 
Q 35.15625 6.890625 40.078125 11.328125 
Q 45.015625 15.765625 45.015625 23.390625 
Q 45.015625 31 40.078125 35.4375 
Q 35.15625 39.890625 26.703125 39.890625 
Q 22.75 39.890625 18.8125 39.015625 
Q 14.890625 38.140625 10.796875 36.28125 
z
" id="DejaVuSans-53"/>
     </defs>
     <g transform="translate(341.243243 219.677217)scale(0.1 -0.1)">
      <use xlink:href="#DejaVuSans-55"/>
      <use x="63.623047" xlink:href="#DejaVuSans-53"/>
     </g>
    </g>
   </g>
   <g id="xtick_3">
    <g id="line2d_4">
     <path d="M 318.973672 206.066111 
L 322.846166 207.38878 
" style="fill:none;stroke:#000000;stroke-linecap:square;stroke-width:0.8;"/>
    </g>
    <g id="text_4">
     <!-- 80 -->
     <defs>
      <path d="M 31.78125 34.625 
Q 24.75 34.625 20.71875 30.859375 
Q 16.703125 27.09375 16.703125 20.515625 
Q 16.703125 13.921875 20.71875 10.15625 
Q 24.75 6.390625 31.78125 6.390625 
Q 38.8125 6.390625 42.859375 10.171875 
Q 46.921875 13.96875 46.921875 20.515625 
Q 46.921875 27.09375 42.890625 30.859375 
Q 38.875 34.625 31.78125 34.625 
z
M 21.921875 38.8125 
Q 15.578125 40.375 12.03125 44.71875 
Q 8.5 49.078125 8.5 55.328125 
Q 8.5 64.0625 14.71875 69.140625 
Q 20.953125 74.21875 31.78125 74.21875 
Q 42.671875 74.21875 48.875 69.140625 
Q 55.078125 64.0625 55.078125 55.328125 
Q 55.078125 49.078125 51.53125 44.71875 
Q 48 40.375 41.703125 38.8125 
Q 48.828125 37.15625 52.796875 32.3125 
Q 56.78125 27.484375 56.78125 20.515625 
Q 56.78125 9.90625 50.3125 4.234375 
Q 43.84375 -1.421875 31.78125 -1.421875 
Q 19.734375 -1.421875 13.25 4.234375 
Q 6.78125 9.90625 6.78125 20.515625 
Q 6.78125 27.484375 10.78125 32.3125 
Q 14.796875 37.15625 21.921875 38.8125 
z
M 18.3125 54.390625 
Q 18.3125 48.734375 21.84375 45.5625 
Q 25.390625 42.390625 31.78125 42.390625 
Q 38.140625 42.390625 41.71875 45.5625 
Q 45.3125 48.734375 45.3125 54.390625 
Q 45.3125 60.0625 41.71875 63.234375 
Q 38.140625 66.40625 31.78125 66.40625 
Q 25.390625 66.40625 21.84375 63.234375 
Q 18.3125 60.0625 18.3125 54.390625 
z
" id="DejaVuSans-56"/>
     </defs>
     <g transform="translate(324.542767 226.048088)scale(0.1 -0.1)">
      <use xlink:href="#DejaVuSans-56"/>
      <use x="63.623047" xlink:href="#DejaVuSans-48"/>
     </g>
    </g>
   </g>
   <g id="xtick_4">
    <g id="line2d_5">
     <path d="M 301.963641 212.431266 
L 305.838459 213.773359 
" style="fill:none;stroke:#000000;stroke-linecap:square;stroke-width:0.8;"/>
    </g>
    <g id="text_5">
     <!-- 85 -->
     <g transform="translate(307.597792 232.51223)scale(0.1 -0.1)">
      <use xlink:href="#DejaVuSans-56"/>
      <use x="63.623047" xlink:href="#DejaVuSans-53"/>
     </g>
    </g>
   </g>
   <g id="xtick_5">
    <g id="line2d_6">
     <path d="M 284.703074 218.890171 
L 288.579864 220.252119 
" style="fill:none;stroke:#000000;stroke-linecap:square;stroke-width:0.8;"/>
    </g>
    <g id="text_6">
     <!-- 90 -->
     <defs>
      <path d="M 10.984375 1.515625 
L 10.984375 10.5 
Q 14.703125 8.734375 18.5 7.8125 
Q 22.3125 6.890625 25.984375 6.890625 
Q 35.75 6.890625 40.890625 13.453125 
Q 46.046875 20.015625 46.78125 33.40625 
Q 43.953125 29.203125 39.59375 26.953125 
Q 35.25 24.703125 29.984375 24.703125 
Q 19.046875 24.703125 12.671875 31.3125 
Q 6.296875 37.9375 6.296875 49.421875 
Q 6.296875 60.640625 12.9375 67.421875 
Q 19.578125 74.21875 30.609375 74.21875 
Q 43.265625 74.21875 49.921875 64.515625 
Q 56.59375 54.828125 56.59375 36.375 
Q 56.59375 19.140625 48.40625 8.859375 
Q 40.234375 -1.421875 26.421875 -1.421875 
Q 22.703125 -1.421875 18.890625 -0.6875 
Q 15.09375 0.046875 10.984375 1.515625 
z
M 30.609375 32.421875 
Q 37.25 32.421875 41.125 36.953125 
Q 45.015625 41.5 45.015625 49.421875 
Q 45.015625 57.28125 41.125 61.84375 
Q 37.25 66.40625 30.609375 66.40625 
Q 23.96875 66.40625 20.09375 61.84375 
Q 16.21875 57.28125 16.21875 49.421875 
Q 16.21875 41.5 20.09375 36.953125 
Q 23.96875 32.421875 30.609375 32.421875 
z
" id="DejaVuSans-57"/>
     </defs>
     <g transform="translate(290.40291 239.071706)scale(0.1 -0.1)">
      <use xlink:href="#DejaVuSans-57"/>
      <use x="63.623047" xlink:href="#DejaVuSans-48"/>
     </g>
    </g>
   </g>
   <g id="xtick_6">
    <g id="line2d_7">
     <path d="M 267.186394 225.444913 
L 271.064788 226.827161 
" style="fill:none;stroke:#000000;stroke-linecap:square;stroke-width:0.8;"/>
    </g>
    <g id="text_7">
     <!-- 95 -->
     <g transform="translate(272.952551 245.728642)scale(0.1 -0.1)">
      <use xlink:href="#DejaVuSans-57"/>
      <use x="63.623047" xlink:href="#DejaVuSans-53"/>
     </g>
    </g>
   </g>
   <g id="xtick_7">
    <g id="line2d_8">
     <path d="M 249.407859 232.097642 
L 253.28747 233.500647 
" style="fill:none;stroke:#000000;stroke-linecap:square;stroke-width:0.8;"/>
    </g>
    <g id="text_8">
     <!-- 100 -->
     <g transform="translate(252.059728 252.485225)scale(0.1 -0.1)">
      <use xlink:href="#DejaVuSans-49"/>
      <use x="63.623047" xlink:href="#DejaVuSans-48"/>
      <use x="127.246094" xlink:href="#DejaVuSans-48"/>
     </g>
    </g>
   </g>
   <g id="xtick_8">
    <g id="line2d_9">
     <path d="M 231.361552 238.850571 
L 235.241977 240.274803 
" style="fill:none;stroke:#000000;stroke-linecap:square;stroke-width:0.8;"/>
    </g>
    <g id="text_9">
     <!-- 105 -->
     <g transform="translate(234.081032 259.343709)scale(0.1 -0.1)">
      <use xlink:href="#DejaVuSans-49"/>
      <use x="63.623047" xlink:href="#DejaVuSans-48"/>
      <use x="127.246094" xlink:href="#DejaVuSans-53"/>
     </g>
    </g>
   </g>
   <g id="xtick_9">
    <g id="line2d_10">
     <path d="M 213.041378 245.705981 
L 216.922195 247.151927 
" style="fill:none;stroke:#000000;stroke-linecap:square;stroke-width:0.8;"/>
    </g>
    <g id="text_10">
     <!-- 110 -->
     <g transform="translate(215.829124 266.306418)scale(0.1 -0.1)">
      <use xlink:href="#DejaVuSans-49"/>
      <use x="63.623047" xlink:href="#DejaVuSans-49"/>
      <use x="127.246094" xlink:href="#DejaVuSans-48"/>
     </g>
    </g>
   </g>
  </g>
  <g id="axis3d_2">
   <g id="line2d_11">
    <path d="M 56.209763 191.865884 
L 207.778378 248.643025 
" style="fill:none;stroke:#000000;stroke-linecap:square;stroke-width:0.8;"/>
   </g>
   <g id="text_11">
    <!-- F2 -->
    <defs>
     <path d="M 19.1875 8.296875 
L 53.609375 8.296875 
L 53.609375 0 
L 7.328125 0 
L 7.328125 8.296875 
Q 12.9375 14.109375 22.625 23.890625 
Q 32.328125 33.6875 34.8125 36.53125 
Q 39.546875 41.84375 41.421875 45.53125 
Q 43.3125 49.21875 43.3125 52.78125 
Q 43.3125 58.59375 39.234375 62.25 
Q 35.15625 65.921875 28.609375 65.921875 
Q 23.96875 65.921875 18.8125 64.3125 
Q 13.671875 62.703125 7.8125 59.421875 
L 7.8125 69.390625 
Q 13.765625 71.78125 18.9375 73 
Q 24.125 74.21875 28.421875 74.21875 
Q 39.75 74.21875 46.484375 68.546875 
Q 53.21875 62.890625 53.21875 53.421875 
Q 53.21875 48.921875 51.53125 44.890625 
Q 49.859375 40.875 45.40625 35.40625 
Q 44.1875 33.984375 37.640625 27.21875 
Q 31.109375 20.453125 19.1875 8.296875 
z
" id="DejaVuSans-50"/>
    </defs>
    <g transform="translate(100.067452 248.496691)scale(0.1 -0.1)">
     <use xlink:href="#DejaVuSans-70"/>
     <use x="57.519531" xlink:href="#DejaVuSans-50"/>
    </g>
   </g>
   <g id="Line3DCollection_2">
    <path d="M 220.933923 26.134772 
L 220.301986 145.877314 
L 68.688952 196.54055 
" style="fill:none;stroke:#b0b0b0;stroke-width:0.8;"/>
    <path d="M 246.824952 33.431091 
L 244.930468 154.023084 
L 93.253352 205.742299 
" style="fill:none;stroke:#b0b0b0;stroke-width:0.8;"/>
    <path d="M 273.268788 40.883195 
L 270.059027 162.334253 
L 118.34838 215.14282 
" style="fill:none;stroke:#b0b0b0;stroke-width:0.8;"/>
    <path d="M 300.283326 48.496129 
L 295.70305 170.815909 
L 143.991416 224.748623 
" style="fill:none;stroke:#b0b0b0;stroke-width:0.8;"/>
    <path d="M 327.887243 56.275155 
L 321.878563 179.473353 
L 170.200611 234.566508 
" style="fill:none;stroke:#b0b0b0;stroke-width:0.8;"/>
    <path d="M 356.10004 64.225768 
L 348.602261 188.312108 
L 196.994922 244.603575 
" style="fill:none;stroke:#b0b0b0;stroke-width:0.8;"/>
   </g>
   <g id="xtick_10">
    <g id="line2d_12">
     <path d="M 69.977029 196.110124 
L 66.108928 197.402695 
" style="fill:none;stroke:#000000;stroke-linecap:square;stroke-width:0.8;"/>
    </g>
    <g id="text_12">
     <!-- 250 -->
     <g transform="translate(48.604088 215.937517)scale(0.1 -0.1)">
      <use xlink:href="#DejaVuSans-50"/>
      <use x="63.623047" xlink:href="#DejaVuSans-53"/>
      <use x="127.246094" xlink:href="#DejaVuSans-48"/>
     </g>
    </g>
   </g>
   <g id="xtick_11">
    <g id="line2d_13">
     <path d="M 94.542777 205.302628 
L 90.670587 206.622976 
" style="fill:none;stroke:#000000;stroke-linecap:square;stroke-width:0.8;"/>
    </g>
    <g id="text_13">
     <!-- 300 -->
     <defs>
      <path d="M 40.578125 39.3125 
Q 47.65625 37.796875 51.625 33 
Q 55.609375 28.21875 55.609375 21.1875 
Q 55.609375 10.40625 48.1875 4.484375 
Q 40.765625 -1.421875 27.09375 -1.421875 
Q 22.515625 -1.421875 17.65625 -0.515625 
Q 12.796875 0.390625 7.625 2.203125 
L 7.625 11.71875 
Q 11.71875 9.328125 16.59375 8.109375 
Q 21.484375 6.890625 26.8125 6.890625 
Q 36.078125 6.890625 40.9375 10.546875 
Q 45.796875 14.203125 45.796875 21.1875 
Q 45.796875 27.640625 41.28125 31.265625 
Q 36.765625 34.90625 28.71875 34.90625 
L 20.21875 34.90625 
L 20.21875 43.015625 
L 29.109375 43.015625 
Q 36.375 43.015625 40.234375 45.921875 
Q 44.09375 48.828125 44.09375 54.296875 
Q 44.09375 59.90625 40.109375 62.90625 
Q 36.140625 65.921875 28.71875 65.921875 
Q 24.65625 65.921875 20.015625 65.03125 
Q 15.375 64.15625 9.8125 62.3125 
L 9.8125 71.09375 
Q 15.4375 72.65625 20.34375 73.4375 
Q 25.25 74.21875 29.59375 74.21875 
Q 40.828125 74.21875 47.359375 69.109375 
Q 53.90625 64.015625 53.90625 55.328125 
Q 53.90625 49.265625 50.4375 45.09375 
Q 46.96875 40.921875 40.578125 39.3125 
z
" id="DejaVuSans-51"/>
     </defs>
     <g transform="translate(73.075257 225.27274)scale(0.1 -0.1)">
      <use xlink:href="#DejaVuSans-51"/>
      <use x="63.623047" xlink:href="#DejaVuSans-48"/>
      <use x="127.246094" xlink:href="#DejaVuSans-48"/>
     </g>
    </g>
   </g>
   <g id="xtick_12">
    <g id="line2d_14">
     <path d="M 119.638911 214.693603 
L 115.763358 216.042634 
" style="fill:none;stroke:#000000;stroke-linecap:square;stroke-width:0.8;"/>
    </g>
    <g id="text_14">
     <!-- 350 -->
     <g transform="translate(98.075465 234.809779)scale(0.1 -0.1)">
      <use xlink:href="#DejaVuSans-51"/>
      <use x="63.623047" xlink:href="#DejaVuSans-53"/>
      <use x="127.246094" xlink:href="#DejaVuSans-48"/>
     </g>
    </g>
   </g>
   <g id="xtick_13">
    <g id="line2d_15">
     <path d="M 145.282795 224.289545 
L 141.404655 225.668204 
" style="fill:none;stroke:#000000;stroke-linecap:square;stroke-width:0.8;"/>
    </g>
    <g id="text_15">
     <!-- 400 -->
     <defs>
      <path d="M 37.796875 64.3125 
L 12.890625 25.390625 
L 37.796875 25.390625 
z
M 35.203125 72.90625 
L 47.609375 72.90625 
L 47.609375 25.390625 
L 58.015625 25.390625 
L 58.015625 17.1875 
L 47.609375 17.1875 
L 47.609375 0 
L 37.796875 0 
L 37.796875 17.1875 
L 4.890625 17.1875 
L 4.890625 26.703125 
z
" id="DejaVuSans-52"/>
     </defs>
     <g transform="translate(123.622053 244.555251)scale(0.1 -0.1)">
      <use xlink:href="#DejaVuSans-52"/>
      <use x="63.623047" xlink:href="#DejaVuSans-48"/>
      <use x="127.246094" xlink:href="#DejaVuSans-48"/>
     </g>
    </g>
   </g>
   <g id="xtick_14">
    <g id="line2d_16">
     <path d="M 171.492559 234.09724 
L 167.612662 235.506514 
" style="fill:none;stroke:#000000;stroke-linecap:square;stroke-width:0.8;"/>
    </g>
    <g id="text_16">
     <!-- 450 -->
     <g transform="translate(149.733132 254.516064)scale(0.1 -0.1)">
      <use xlink:href="#DejaVuSans-52"/>
      <use x="63.623047" xlink:href="#DejaVuSans-53"/>
      <use x="127.246094" xlink:href="#DejaVuSans-48"/>
     </g>
    </g>
   </g>
   <g id="xtick_15">
    <g id="line2d_17">
     <path d="M 198.287144 244.123776 
L 194.406379 245.564695 
" style="fill:none;stroke:#000000;stroke-linecap:square;stroke-width:0.8;"/>
    </g>
    <g id="text_17">
     <!-- 500 -->
     <g transform="translate(176.427621 264.699436)scale(0.1 -0.1)">
      <use xlink:href="#DejaVuSans-53"/>
      <use x="63.623047" xlink:href="#DejaVuSans-48"/>
      <use x="127.246094" xlink:href="#DejaVuSans-48"/>
     </g>
    </g>
   </g>
  </g>
  <g id="axis3d_3">
   <g id="line2d_18">
    <path d="M 56.209763 191.865884 
L 48.10449 67.424925 
" style="fill:none;stroke:#000000;stroke-linecap:square;stroke-width:0.8;"/>
   </g>
   <g id="text_18">
    <!-- F3 -->
    <g transform="translate(-0.042675 134.025105)scale(0.1 -0.1)">
     <use xlink:href="#DejaVuSans-70"/>
     <use x="57.519531" xlink:href="#DejaVuSans-51"/>
    </g>
   </g>
   <g id="Line3DCollection_3">
    <path d="M 56.05573 189.501 
L 207.778378 139.460888 
L 359.501027 189.501 
" style="fill:none;stroke:#b0b0b0;stroke-width:0.8;"/>
    <path d="M 55.124916 175.210136 
L 207.778378 125.723211 
L 360.43184 175.210136 
" style="fill:none;stroke:#b0b0b0;stroke-width:0.8;"/>
    <path d="M 54.182611 160.742842 
L 207.778378 111.825985 
L 361.374146 160.742842 
" style="fill:none;stroke:#b0b0b0;stroke-width:0.8;"/>
    <path d="M 53.2286 146.09583 
L 207.778378 97.766414 
L 362.328157 146.09583 
" style="fill:none;stroke:#b0b0b0;stroke-width:0.8;"/>
    <path d="M 52.262664 131.26573 
L 207.778378 83.541636 
L 363.294093 131.26573 
" style="fill:none;stroke:#b0b0b0;stroke-width:0.8;"/>
    <path d="M 51.284578 116.249088 
L 207.778378 69.148724 
L 364.272179 116.249088 
" style="fill:none;stroke:#b0b0b0;stroke-width:0.8;"/>
    <path d="M 50.294111 101.042362 
L 207.778378 54.584677 
L 365.262646 101.042362 
" style="fill:none;stroke:#b0b0b0;stroke-width:0.8;"/>
    <path d="M 49.291026 85.641919 
L 207.778378 39.846425 
L 366.265731 85.641919 
" style="fill:none;stroke:#b0b0b0;stroke-width:0.8;"/>
    <path d="M 48.275082 70.044035 
L 207.778378 24.930825 
L 367.281675 70.044035 
" style="fill:none;stroke:#b0b0b0;stroke-width:0.8;"/>
   </g>
   <g id="xtick_16">
    <g id="line2d_19">
     <path d="M 57.344407 189.075978 
L 53.474523 190.352316 
" style="fill:none;stroke:#000000;stroke-linecap:square;stroke-width:0.8;"/>
    </g>
    <g id="text_19">
     <!-- 0.80 -->
     <defs>
      <path d="M 10.6875 12.40625 
L 21 12.40625 
L 21 0 
L 10.6875 0 
z
" id="DejaVuSans-46"/>
     </defs>
     <g transform="translate(24.16758 197.099438)scale(0.1 -0.1)">
      <use xlink:href="#DejaVuSans-48"/>
      <use x="63.623047" xlink:href="#DejaVuSans-46"/>
      <use x="95.410156" xlink:href="#DejaVuSans-56"/>
      <use x="159.033203" xlink:href="#DejaVuSans-48"/>
     </g>
    </g>
   </g>
   <g id="xtick_17">
    <g id="line2d_20">
     <path d="M 56.421961 174.789662 
L 52.526924 176.052349 
" style="fill:none;stroke:#000000;stroke-linecap:square;stroke-width:0.8;"/>
    </g>
    <g id="text_20">
     <!-- 0.82 -->
     <g transform="translate(23.109433 182.808574)scale(0.1 -0.1)">
      <use xlink:href="#DejaVuSans-48"/>
      <use x="63.623047" xlink:href="#DejaVuSans-46"/>
      <use x="95.410156" xlink:href="#DejaVuSans-56"/>
      <use x="159.033203" xlink:href="#DejaVuSans-50"/>
     </g>
    </g>
   </g>
   <g id="xtick_18">
    <g id="line2d_21">
     <path d="M 55.488133 160.327062 
L 51.567615 161.57566 
" style="fill:none;stroke:#000000;stroke-linecap:square;stroke-width:0.8;"/>
    </g>
    <g id="text_21">
     <!-- 0.84 -->
     <g transform="translate(22.038222 168.341279)scale(0.1 -0.1)">
      <use xlink:href="#DejaVuSans-48"/>
      <use x="63.623047" xlink:href="#DejaVuSans-46"/>
      <use x="95.410156" xlink:href="#DejaVuSans-56"/>
      <use x="159.033203" xlink:href="#DejaVuSans-52"/>
     </g>
    </g>
   </g>
   <g id="xtick_19">
    <g id="line2d_22">
     <path d="M 54.54271 145.684893 
L 50.596377 146.918955 
" style="fill:none;stroke:#000000;stroke-linecap:square;stroke-width:0.8;"/>
    </g>
    <g id="text_22">
     <!-- 0.86 -->
     <defs>
      <path d="M 33.015625 40.375 
Q 26.375 40.375 22.484375 35.828125 
Q 18.609375 31.296875 18.609375 23.390625 
Q 18.609375 15.53125 22.484375 10.953125 
Q 26.375 6.390625 33.015625 6.390625 
Q 39.65625 6.390625 43.53125 10.953125 
Q 47.40625 15.53125 47.40625 23.390625 
Q 47.40625 31.296875 43.53125 35.828125 
Q 39.65625 40.375 33.015625 40.375 
z
M 52.59375 71.296875 
L 52.59375 62.3125 
Q 48.875 64.0625 45.09375 64.984375 
Q 41.3125 65.921875 37.59375 65.921875 
Q 27.828125 65.921875 22.671875 59.328125 
Q 17.53125 52.734375 16.796875 39.40625 
Q 19.671875 43.65625 24.015625 45.921875 
Q 28.375 48.1875 33.59375 48.1875 
Q 44.578125 48.1875 50.953125 41.515625 
Q 57.328125 34.859375 57.328125 23.390625 
Q 57.328125 12.15625 50.6875 5.359375 
Q 44.046875 -1.421875 33.015625 -1.421875 
Q 20.359375 -1.421875 13.671875 8.265625 
Q 6.984375 17.96875 6.984375 36.375 
Q 6.984375 53.65625 15.1875 63.9375 
Q 23.390625 74.21875 37.203125 74.21875 
Q 40.921875 74.21875 44.703125 73.484375 
Q 48.484375 72.75 52.59375 71.296875 
z
" id="DejaVuSans-54"/>
     </defs>
     <g transform="translate(20.953704 153.694267)scale(0.1 -0.1)">
      <use xlink:href="#DejaVuSans-48"/>
      <use x="63.623047" xlink:href="#DejaVuSans-46"/>
      <use x="95.410156" xlink:href="#DejaVuSans-56"/>
      <use x="159.033203" xlink:href="#DejaVuSans-54"/>
     </g>
    </g>
   </g>
   <g id="xtick_20">
    <g id="line2d_23">
     <path d="M 53.585476 130.85979 
L 49.612986 132.078853 
" style="fill:none;stroke:#000000;stroke-linecap:square;stroke-width:0.8;"/>
    </g>
    <g id="text_23">
     <!-- 0.88 -->
     <g transform="translate(19.85563 138.864167)scale(0.1 -0.1)">
      <use xlink:href="#DejaVuSans-48"/>
      <use x="63.623047" xlink:href="#DejaVuSans-46"/>
      <use x="95.410156" xlink:href="#DejaVuSans-56"/>
      <use x="159.033203" xlink:href="#DejaVuSans-56"/>
     </g>
    </g>
   </g>
   <g id="xtick_21">
    <g id="line2d_24">
     <path d="M 52.616207 115.848304 
L 48.617212 117.051892 
" style="fill:none;stroke:#000000;stroke-linecap:square;stroke-width:0.8;"/>
    </g>
    <g id="text_24">
     <!-- 0.90 -->
     <g transform="translate(18.743744 123.847525)scale(0.1 -0.1)">
      <use xlink:href="#DejaVuSans-48"/>
      <use x="63.623047" xlink:href="#DejaVuSans-46"/>
      <use x="95.410156" xlink:href="#DejaVuSans-57"/>
      <use x="159.033203" xlink:href="#DejaVuSans-48"/>
     </g>
    </g>
   </g>
   <g id="xtick_22">
    <g id="line2d_25">
     <path d="M 51.634675 100.646897 
L 47.608821 101.834519 
" style="fill:none;stroke:#000000;stroke-linecap:square;stroke-width:0.8;"/>
    </g>
    <g id="text_25">
     <!-- 0.92 -->
     <g transform="translate(17.617783 108.640799)scale(0.1 -0.1)">
      <use xlink:href="#DejaVuSans-48"/>
      <use x="63.623047" xlink:href="#DejaVuSans-46"/>
      <use x="95.410156" xlink:href="#DejaVuSans-57"/>
      <use x="159.033203" xlink:href="#DejaVuSans-50"/>
     </g>
    </g>
   </g>
   <g id="xtick_23">
    <g id="line2d_26">
     <path d="M 50.640646 85.251942 
L 46.58757 86.423093 
" style="fill:none;stroke:#000000;stroke-linecap:square;stroke-width:0.8;"/>
    </g>
    <g id="text_26">
     <!-- 0.94 -->
     <g transform="translate(16.477479 93.240357)scale(0.1 -0.1)">
      <use xlink:href="#DejaVuSans-48"/>
      <use x="63.623047" xlink:href="#DejaVuSans-46"/>
      <use x="95.410156" xlink:href="#DejaVuSans-57"/>
      <use x="159.033203" xlink:href="#DejaVuSans-52"/>
     </g>
    </g>
   </g>
   <g id="xtick_24">
    <g id="line2d_27">
     <path d="M 49.63388 69.659719 
L 45.553213 70.813877 
" style="fill:none;stroke:#000000;stroke-linecap:square;stroke-width:0.8;"/>
    </g>
    <g id="text_27">
     <!-- 0.96 -->
     <g transform="translate(15.322555 77.642473)scale(0.1 -0.1)">
      <use xlink:href="#DejaVuSans-48"/>
      <use x="63.623047" xlink:href="#DejaVuSans-46"/>
      <use x="95.410156" xlink:href="#DejaVuSans-57"/>
      <use x="159.033203" xlink:href="#DejaVuSans-54"/>
     </g>
    </g>
   </g>
  </g>
  <g id="axes_1">
   <g id="line2d_28">
    <defs>
     <path d="M 0 1.5 
C 0.397805 1.5 0.77937 1.341951 1.06066 1.06066 
C 1.341951 0.77937 1.5 0.397805 1.5 0 
C 1.5 -0.397805 1.341951 -0.77937 1.06066 -1.06066 
C 0.77937 -1.341951 0.397805 -1.5 0 -1.5 
C -0.397805 -1.5 -0.77937 -1.341951 -1.06066 -1.06066 
C -1.341951 -0.77937 -1.5 -0.397805 -1.5 0 
C -1.5 0.397805 -1.341951 0.77937 -1.06066 1.06066 
C -0.77937 1.341951 -0.397805 1.5 0 1.5 
z
" id="m6d3e665c5d" style="stroke:#4682b4;"/>
    </defs>
    <g clip-path="url(#p7e79db0fb8)">
     <use style="fill:#4682b4;stroke:#4682b4;" x="329.983522" xlink:href="#m6d3e665c5d" y="65.198602"/>
     <use style="fill:#4682b4;stroke:#4682b4;" x="118.855656" xlink:href="#m6d3e665c5d" y="112.98774"/>
     <use style="fill:#4682b4;stroke:#4682b4;" x="219.662916" xlink:href="#m6d3e665c5d" y="106.415567"/>
     <use style="fill:#4682b4;stroke:#4682b4;" x="186.738036" xlink:href="#m6d3e665c5d" y="107.234277"/>
     <use style="fill:#4682b4;stroke:#4682b4;" x="329.580166" xlink:href="#m6d3e665c5d" y="75.605209"/>
     <use style="fill:#4682b4;stroke:#4682b4;" x="99.290184" xlink:href="#m6d3e665c5d" y="111.2395"/>
     <use style="fill:#4682b4;stroke:#4682b4;" x="167.165516" xlink:href="#m6d3e665c5d" y="105.511783"/>
     <use style="fill:#4682b4;stroke:#4682b4;" x="75.365885" xlink:href="#m6d3e665c5d" y="189.501"/>
     <use style="fill:#4682b4;stroke:#4682b4;" x="296.484054" xlink:href="#m6d3e665c5d" y="152.269918"/>
     <use style="fill:#4682b4;stroke:#4682b4;" x="99.290184" xlink:href="#m6d3e665c5d" y="111.2395"/>
     <use style="fill:#4682b4;stroke:#4682b4;" x="75.365885" xlink:href="#m6d3e665c5d" y="189.501"/>
     <use style="fill:#4682b4;stroke:#4682b4;" x="329.580166" xlink:href="#m6d3e665c5d" y="75.605209"/>
     <use style="fill:#4682b4;stroke:#4682b4;" x="329.983522" xlink:href="#m6d3e665c5d" y="65.198602"/>
     <use style="fill:#4682b4;stroke:#4682b4;" x="329.983522" xlink:href="#m6d3e665c5d" y="65.198602"/>
     <use style="fill:#4682b4;stroke:#4682b4;" x="329.983522" xlink:href="#m6d3e665c5d" y="65.198602"/>
     <use style="fill:#4682b4;stroke:#4682b4;" x="137.63224" xlink:href="#m6d3e665c5d" y="186.831253"/>
     <use style="fill:#4682b4;stroke:#4682b4;" x="329.580166" xlink:href="#m6d3e665c5d" y="75.605209"/>
     <use style="fill:#4682b4;stroke:#4682b4;" x="99.290184" xlink:href="#m6d3e665c5d" y="111.2395"/>
     <use style="fill:#4682b4;stroke:#4682b4;" x="137.63224" xlink:href="#m6d3e665c5d" y="186.831253"/>
     <use style="fill:#4682b4;stroke:#4682b4;" x="137.63224" xlink:href="#m6d3e665c5d" y="186.831253"/>
     <use style="fill:#4682b4;stroke:#4682b4;" x="99.290184" xlink:href="#m6d3e665c5d" y="111.2395"/>
     <use style="fill:#4682b4;stroke:#4682b4;" x="137.63224" xlink:href="#m6d3e665c5d" y="186.831253"/>
     <use style="fill:#4682b4;stroke:#4682b4;" x="137.63224" xlink:href="#m6d3e665c5d" y="186.831253"/>
     <use style="fill:#4682b4;stroke:#4682b4;" x="75.365885" xlink:href="#m6d3e665c5d" y="189.501"/>
     <use style="fill:#4682b4;stroke:#4682b4;" x="167.165516" xlink:href="#m6d3e665c5d" y="105.511783"/>
     <use style="fill:#4682b4;stroke:#4682b4;" x="99.290184" xlink:href="#m6d3e665c5d" y="111.2395"/>
     <use style="fill:#4682b4;stroke:#4682b4;" x="75.365885" xlink:href="#m6d3e665c5d" y="189.501"/>
     <use style="fill:#4682b4;stroke:#4682b4;" x="219.662916" xlink:href="#m6d3e665c5d" y="106.415567"/>
     <use style="fill:#4682b4;stroke:#4682b4;" x="99.290184" xlink:href="#m6d3e665c5d" y="111.2395"/>
     <use style="fill:#4682b4;stroke:#4682b4;" x="99.290184" xlink:href="#m6d3e665c5d" y="111.2395"/>
     <use style="fill:#4682b4;stroke:#4682b4;" x="186.738036" xlink:href="#m6d3e665c5d" y="107.234277"/>
     <use style="fill:#4682b4;stroke:#4682b4;" x="99.290184" xlink:href="#m6d3e665c5d" y="111.2395"/>
     <use style="fill:#4682b4;stroke:#4682b4;" x="167.165516" xlink:href="#m6d3e665c5d" y="105.511783"/>
     <use style="fill:#4682b4;stroke:#4682b4;" x="99.290184" xlink:href="#m6d3e665c5d" y="111.2395"/>
     <use style="fill:#4682b4;stroke:#4682b4;" x="167.165516" xlink:href="#m6d3e665c5d" y="105.511783"/>
     <use style="fill:#4682b4;stroke:#4682b4;" x="296.484054" xlink:href="#m6d3e665c5d" y="152.269918"/>
     <use style="fill:#4682b4;stroke:#4682b4;" x="329.983522" xlink:href="#m6d3e665c5d" y="65.198602"/>
     <use style="fill:#4682b4;stroke:#4682b4;" x="75.365885" xlink:href="#m6d3e665c5d" y="189.501"/>
     <use style="fill:#4682b4;stroke:#4682b4;" x="329.983522" xlink:href="#m6d3e665c5d" y="65.198602"/>
     <use style="fill:#4682b4;stroke:#4682b4;" x="329.983522" xlink:href="#m6d3e665c5d" y="65.198602"/>
     <use style="fill:#4682b4;stroke:#4682b4;" x="329.580166" xlink:href="#m6d3e665c5d" y="75.605209"/>
     <use style="fill:#4682b4;stroke:#4682b4;" x="296.484054" xlink:href="#m6d3e665c5d" y="152.269918"/>
     <use style="fill:#4682b4;stroke:#4682b4;" x="137.63224" xlink:href="#m6d3e665c5d" y="186.831253"/>
     <use style="fill:#4682b4;stroke:#4682b4;" x="75.365885" xlink:href="#m6d3e665c5d" y="189.501"/>
     <use style="fill:#4682b4;stroke:#4682b4;" x="329.580166" xlink:href="#m6d3e665c5d" y="75.605209"/>
     <use style="fill:#4682b4;stroke:#4682b4;" x="219.662916" xlink:href="#m6d3e665c5d" y="106.415567"/>
     <use style="fill:#4682b4;stroke:#4682b4;" x="167.165516" xlink:href="#m6d3e665c5d" y="105.511783"/>
     <use style="fill:#4682b4;stroke:#4682b4;" x="186.738036" xlink:href="#m6d3e665c5d" y="107.234277"/>
     <use style="fill:#4682b4;stroke:#4682b4;" x="329.983522" xlink:href="#m6d3e665c5d" y="65.198602"/>
     <use style="fill:#4682b4;stroke:#4682b4;" x="329.983522" xlink:href="#m6d3e665c5d" y="65.198602"/>
     <use style="fill:#4682b4;stroke:#4682b4;" x="329.983522" xlink:href="#m6d3e665c5d" y="65.198602"/>
     <use style="fill:#4682b4;stroke:#4682b4;" x="186.738036" xlink:href="#m6d3e665c5d" y="107.234277"/>
     <use style="fill:#4682b4;stroke:#4682b4;" x="296.484054" xlink:href="#m6d3e665c5d" y="152.269918"/>
     <use style="fill:#4682b4;stroke:#4682b4;" x="219.662916" xlink:href="#m6d3e665c5d" y="106.415567"/>
     <use style="fill:#4682b4;stroke:#4682b4;" x="75.365885" xlink:href="#m6d3e665c5d" y="189.501"/>
     <use style="fill:#4682b4;stroke:#4682b4;" x="137.63224" xlink:href="#m6d3e665c5d" y="186.831253"/>
     <use style="fill:#4682b4;stroke:#4682b4;" x="296.484054" xlink:href="#m6d3e665c5d" y="152.269918"/>
     <use style="fill:#4682b4;stroke:#4682b4;" x="329.580166" xlink:href="#m6d3e665c5d" y="75.605209"/>
     <use style="fill:#4682b4;stroke:#4682b4;" x="219.662916" xlink:href="#m6d3e665c5d" y="106.415567"/>
     <use style="fill:#4682b4;stroke:#4682b4;" x="186.738036" xlink:href="#m6d3e665c5d" y="107.234277"/>
     <use style="fill:#4682b4;stroke:#4682b4;" x="296.484054" xlink:href="#m6d3e665c5d" y="152.269918"/>
     <use style="fill:#4682b4;stroke:#4682b4;" x="167.165516" xlink:href="#m6d3e665c5d" y="105.511783"/>
     <use style="fill:#4682b4;stroke:#4682b4;" x="296.484054" xlink:href="#m6d3e665c5d" y="152.269918"/>
     <use style="fill:#4682b4;stroke:#4682b4;" x="296.484054" xlink:href="#m6d3e665c5d" y="152.269918"/>
     <use style="fill:#4682b4;stroke:#4682b4;" x="329.580166" xlink:href="#m6d3e665c5d" y="75.605209"/>
     <use style="fill:#4682b4;stroke:#4682b4;" x="75.365885" xlink:href="#m6d3e665c5d" y="189.501"/>
     <use style="fill:#4682b4;stroke:#4682b4;" x="329.580166" xlink:href="#m6d3e665c5d" y="75.605209"/>
     <use style="fill:#4682b4;stroke:#4682b4;" x="186.738036" xlink:href="#m6d3e665c5d" y="107.234277"/>
     <use style="fill:#4682b4;stroke:#4682b4;" x="219.662916" xlink:href="#m6d3e665c5d" y="106.415567"/>
     <use style="fill:#4682b4;stroke:#4682b4;" x="99.290184" xlink:href="#m6d3e665c5d" y="111.2395"/>
     <use style="fill:#4682b4;stroke:#4682b4;" x="219.662916" xlink:href="#m6d3e665c5d" y="106.415567"/>
     <use style="fill:#4682b4;stroke:#4682b4;" x="75.365885" xlink:href="#m6d3e665c5d" y="189.501"/>
     <use style="fill:#4682b4;stroke:#4682b4;" x="296.484054" xlink:href="#m6d3e665c5d" y="152.269918"/>
     <use style="fill:#4682b4;stroke:#4682b4;" x="137.63224" xlink:href="#m6d3e665c5d" y="186.831253"/>
     <use style="fill:#4682b4;stroke:#4682b4;" x="186.738036" xlink:href="#m6d3e665c5d" y="107.234277"/>
     <use style="fill:#4682b4;stroke:#4682b4;" x="296.484054" xlink:href="#m6d3e665c5d" y="152.269918"/>
     <use style="fill:#4682b4;stroke:#4682b4;" x="137.63224" xlink:href="#m6d3e665c5d" y="186.831253"/>
     <use style="fill:#4682b4;stroke:#4682b4;" x="296.484054" xlink:href="#m6d3e665c5d" y="152.269918"/>
     <use style="fill:#4682b4;stroke:#4682b4;" x="167.165516" xlink:href="#m6d3e665c5d" y="105.511783"/>
     <use style="fill:#4682b4;stroke:#4682b4;" x="167.165516" xlink:href="#m6d3e665c5d" y="105.511783"/>
     <use style="fill:#4682b4;stroke:#4682b4;" x="167.165516" xlink:href="#m6d3e665c5d" y="105.511783"/>
     <use style="fill:#4682b4;stroke:#4682b4;" x="329.580166" xlink:href="#m6d3e665c5d" y="75.605209"/>
     <use style="fill:#4682b4;stroke:#4682b4;" x="329.580166" xlink:href="#m6d3e665c5d" y="75.605209"/>
     <use style="fill:#4682b4;stroke:#4682b4;" x="186.738036" xlink:href="#m6d3e665c5d" y="107.234277"/>
     <use style="fill:#4682b4;stroke:#4682b4;" x="219.662916" xlink:href="#m6d3e665c5d" y="106.415567"/>
     <use style="fill:#4682b4;stroke:#4682b4;" x="186.738036" xlink:href="#m6d3e665c5d" y="107.234277"/>
     <use style="fill:#4682b4;stroke:#4682b4;" x="186.738036" xlink:href="#m6d3e665c5d" y="107.234277"/>
     <use style="fill:#4682b4;stroke:#4682b4;" x="75.365885" xlink:href="#m6d3e665c5d" y="189.501"/>
     <use style="fill:#4682b4;stroke:#4682b4;" x="219.662916" xlink:href="#m6d3e665c5d" y="106.415567"/>
     <use style="fill:#4682b4;stroke:#4682b4;" x="219.662916" xlink:href="#m6d3e665c5d" y="106.415567"/>
     <use style="fill:#4682b4;stroke:#4682b4;" x="167.165516" xlink:href="#m6d3e665c5d" y="105.511783"/>
    </g>
   </g>
  </g>
 </g>
 <defs>
  <clipPath id="p7e79db0fb8">
   <rect height="255.024" width="390.6" x="7.2" y="7.2"/>
  </clipPath>
 </defs>
</svg>
