<?xml version="1.0" encoding="utf-8" standalone="no"?>
<!DOCTYPE svg PUBLIC "-//W3C//DTD SVG 1.1//EN"
  "http://www.w3.org/Graphics/SVG/1.1/DTD/svg11.dtd">
<!-- Created with matplotlib (https://matplotlib.org/) -->
<svg height="269.424pt" version="1.1" viewBox="0 0 405 269.424" width="405pt" xmlns="http://www.w3.org/2000/svg" xmlns:xlink="http://www.w3.org/1999/xlink">
 <defs>
  <style type="text/css">
*{stroke-linecap:butt;stroke-linejoin:round;}
  </style>
 </defs>
 <g id="figure_1">
  <g id="patch_1">
   <path d="M 0 269.424 
L 405 269.424 
L 405 0 
L 0 0 
z
" style="fill:#ffffff;"/>
  </g>
  <g id="patch_2">
   <path d="M 7.2 262.224 
L 397.8 262.224 
L 397.8 7.2 
L 7.2 7.2 
z
" style="fill:#ffffff;"/>
  </g>
  <g id="pane3d_1">
   <g id="patch_3">
    <path d="M 207.778378 141.735182 
L 359.346993 191.865884 
L 367.452267 67.424925 
L 207.778378 22.427424 
" style="fill:#f2f2f2;opacity:0.5;stroke:#f2f2f2;stroke-linejoin:miter;"/>
   </g>
  </g>
  <g id="pane3d_2">
   <g id="patch_4">
    <path d="M 207.778378 141.735182 
L 56.209763 191.865884 
L 48.10449 67.424925 
L 207.778378 22.427424 
" style="fill:#e6e6e6;opacity:0.5;stroke:#e6e6e6;stroke-linejoin:miter;"/>
   </g>
  </g>
  <g id="pane3d_3">
   <g id="patch_5">
    <path d="M 207.778378 141.735182 
L 56.209763 191.865884 
L 207.778378 248.643025 
L 359.346993 191.865884 
" style="fill:#ececec;opacity:0.5;stroke:#ececec;stroke-linejoin:miter;"/>
   </g>
  </g>
  <g id="axis3d_1">
   <g id="line2d_1">
    <path d="M 359.346993 191.865884 
L 207.778378 248.643025 
" style="fill:none;stroke:#000000;stroke-linecap:square;stroke-width:0.8;"/>
   </g>
   <g id="text_1">
    <!-- F1 -->
    <defs>
     <path d="M 9.8125 72.90625 
L 51.703125 72.90625 
L 51.703125 64.59375 
L 19.671875 64.59375 
L 19.671875 43.109375 
L 48.578125 43.109375 
L 48.578125 34.8125 
L 19.671875 34.8125 
L 19.671875 0 
L 9.8125 0 
z
" id="DejaVuSans-70"/>
     <path d="M 12.40625 8.296875 
L 28.515625 8.296875 
L 28.515625 63.921875 
L 10.984375 60.40625 
L 10.984375 69.390625 
L 28.421875 72.90625 
L 38.28125 72.90625 
L 38.28125 8.296875 
L 54.390625 8.296875 
L 54.390625 0 
L 12.40625 0 
z
" id="DejaVuSans-49"/>
    </defs>
    <g transform="translate(303.375242 248.496691)scale(0.1 -0.1)">
     <use xlink:href="#DejaVuSans-70"/>
     <use x="57.519531" xlink:href="#DejaVuSans-49"/>
    </g>
   </g>
   <g id="Line3DCollection_1">
    <path d="M 348.246857 196.023961 
L 196.638338 145.419705 
L 196.076549 25.725102 
" style="fill:none;stroke:#b0b0b0;stroke-width:0.8;"/>
    <path d="M 327.864099 203.65928 
L 176.19878 152.180005 
L 174.592261 31.779563 
" style="fill:none;stroke:#b0b0b0;stroke-width:0.8;"/>
    <path d="M 307.116446 211.431288 
L 155.415186 159.054094 
L 152.727795 37.941161 
" style="fill:none;stroke:#b0b0b0;stroke-width:0.8;"/>
    <path d="M 285.994011 219.343688 
L 134.278798 166.044869 
L 130.472969 44.212766 
" style="fill:none;stroke:#b0b0b0;stroke-width:0.8;"/>
    <path d="M 264.486545 227.400319 
L 112.780554 173.155325 
L 107.817234 50.597351 
" style="fill:none;stroke:#b0b0b0;stroke-width:0.8;"/>
    <path d="M 242.583424 235.605161 
L 90.911083 180.388564 
L 84.749659 57.097996 
" style="fill:none;stroke:#b0b0b0;stroke-width:0.8;"/>
    <path d="M 220.273629 243.962342 
L 68.660686 187.747792 
L 61.25891 63.717894 
" style="fill:none;stroke:#b0b0b0;stroke-width:0.8;"/>
   </g>
   <g id="xtick_1">
    <g id="line2d_2">
     <path d="M 346.958863 195.594052 
L 350.826712 196.885071 
" style="fill:none;stroke:#000000;stroke-linecap:square;stroke-width:0.8;"/>
    </g>
    <g id="text_2">
     <!-- 70 -->
     <defs>
      <path d="M 8.203125 72.90625 
L 55.078125 72.90625 
L 55.078125 68.703125 
L 28.609375 0 
L 18.3125 0 
L 43.21875 64.59375 
L 8.203125 64.59375 
z
" id="DejaVuSans-55"/>
      <path d="M 31.78125 66.40625 
Q 24.171875 66.40625 20.328125 58.90625 
Q 16.5 51.421875 16.5 36.375 
Q 16.5 21.390625 20.328125 13.890625 
Q 24.171875 6.390625 31.78125 6.390625 
Q 39.453125 6.390625 43.28125 13.890625 
Q 47.125 21.390625 47.125 36.375 
Q 47.125 51.421875 43.28125 58.90625 
Q 39.453125 66.40625 31.78125 66.40625 
z
M 31.78125 74.21875 
Q 44.046875 74.21875 50.515625 64.515625 
Q 56.984375 54.828125 56.984375 36.375 
Q 56.984375 17.96875 50.515625 8.265625 
Q 44.046875 -1.421875 31.78125 -1.421875 
Q 19.53125 -1.421875 13.0625 8.265625 
Q 6.59375 17.96875 6.59375 36.375 
Q 6.59375 54.828125 13.0625 64.515625 
Q 19.53125 74.21875 31.78125 74.21875 
z
" id="DejaVuSans-48"/>
     </defs>
     <g transform="translate(352.420225 215.413439)scale(0.1 -0.1)">
      <use xlink:href="#DejaVuSans-55"/>
      <use x="63.623047" xlink:href="#DejaVuSans-48"/>
     </g>
    </g>
   </g>
   <g id="xtick_2">
    <g id="line2d_3">
     <path d="M 326.574956 203.22171 
L 330.44629 204.535745 
" style="fill:none;stroke:#000000;stroke-linecap:square;stroke-width:0.8;"/>
    </g>
    <g id="text_3">
     <!-- 80 -->
     <defs>
      <path d="M 31.78125 34.625 
Q 24.75 34.625 20.71875 30.859375 
Q 16.703125 27.09375 16.703125 20.515625 
Q 16.703125 13.921875 20.71875 10.15625 
Q 24.75 6.390625 31.78125 6.390625 
Q 38.8125 6.390625 42.859375 10.171875 
Q 46.921875 13.96875 46.921875 20.515625 
Q 46.921875 27.09375 42.890625 30.859375 
Q 38.875 34.625 31.78125 34.625 
z
M 21.921875 38.8125 
Q 15.578125 40.375 12.03125 44.71875 
Q 8.5 49.078125 8.5 55.328125 
Q 8.5 64.0625 14.71875 69.140625 
Q 20.953125 74.21875 31.78125 74.21875 
Q 42.671875 74.21875 48.875 69.140625 
Q 55.078125 64.0625 55.078125 55.328125 
Q 55.078125 49.078125 51.53125 44.71875 
Q 48 40.375 41.703125 38.8125 
Q 48.828125 37.15625 52.796875 32.3125 
Q 56.78125 27.484375 56.78125 20.515625 
Q 56.78125 9.90625 50.3125 4.234375 
Q 43.84375 -1.421875 31.78125 -1.421875 
Q 19.734375 -1.421875 13.25 4.234375 
Q 6.78125 9.90625 6.78125 20.515625 
Q 6.78125 27.484375 10.78125 32.3125 
Q 14.796875 37.15625 21.921875 38.8125 
z
M 18.3125 54.390625 
Q 18.3125 48.734375 21.84375 45.5625 
Q 25.390625 42.390625 31.78125 42.390625 
Q 38.140625 42.390625 41.71875 45.5625 
Q 45.3125 48.734375 45.3125 54.390625 
Q 45.3125 60.0625 41.71875 63.234375 
Q 38.140625 66.40625 31.78125 66.40625 
Q 25.390625 66.40625 21.84375 63.234375 
Q 18.3125 60.0625 18.3125 54.390625 
z
" id="DejaVuSans-56"/>
     </defs>
     <g transform="translate(332.114875 223.159492)scale(0.1 -0.1)">
      <use xlink:href="#DejaVuSans-56"/>
      <use x="63.623047" xlink:href="#DejaVuSans-48"/>
     </g>
    </g>
   </g>
   <g id="xtick_3">
    <g id="line2d_4">
     <path d="M 305.826319 210.985851 
L 309.700643 212.323521 
" style="fill:none;stroke:#000000;stroke-linecap:square;stroke-width:0.8;"/>
    </g>
    <g id="text_4">
     <!-- 90 -->
     <defs>
      <path d="M 10.984375 1.515625 
L 10.984375 10.5 
Q 14.703125 8.734375 18.5 7.8125 
Q 22.3125 6.890625 25.984375 6.890625 
Q 35.75 6.890625 40.890625 13.453125 
Q 46.046875 20.015625 46.78125 33.40625 
Q 43.953125 29.203125 39.59375 26.953125 
Q 35.25 24.703125 29.984375 24.703125 
Q 19.046875 24.703125 12.671875 31.3125 
Q 6.296875 37.9375 6.296875 49.421875 
Q 6.296875 60.640625 12.9375 67.421875 
Q 19.578125 74.21875 30.609375 74.21875 
Q 43.265625 74.21875 49.921875 64.515625 
Q 56.59375 54.828125 56.59375 36.375 
Q 56.59375 19.140625 48.40625 8.859375 
Q 40.234375 -1.421875 26.421875 -1.421875 
Q 22.703125 -1.421875 18.890625 -0.6875 
Q 15.09375 0.046875 10.984375 1.515625 
z
M 30.609375 32.421875 
Q 37.25 32.421875 41.125 36.953125 
Q 45.015625 41.5 45.015625 49.421875 
Q 45.015625 57.28125 41.125 61.84375 
Q 37.25 66.40625 30.609375 66.40625 
Q 23.96875 66.40625 20.09375 61.84375 
Q 16.21875 57.28125 16.21875 49.421875 
Q 16.21875 41.5 20.09375 36.953125 
Q 23.96875 32.421875 30.609375 32.421875 
z
" id="DejaVuSans-57"/>
     </defs>
     <g transform="translate(311.445725 231.044327)scale(0.1 -0.1)">
      <use xlink:href="#DejaVuSans-57"/>
      <use x="63.623047" xlink:href="#DejaVuSans-48"/>
     </g>
    </g>
   </g>
   <g id="xtick_4">
    <g id="line2d_5">
     <path d="M 284.703074 218.890171 
L 288.579864 220.252119 
" style="fill:none;stroke:#000000;stroke-linecap:square;stroke-width:0.8;"/>
    </g>
    <g id="text_5">
     <!-- 100 -->
     <g transform="translate(287.22166 239.071706)scale(0.1 -0.1)">
      <use xlink:href="#DejaVuSans-49"/>
      <use x="63.623047" xlink:href="#DejaVuSans-48"/>
      <use x="127.246094" xlink:href="#DejaVuSans-48"/>
     </g>
    </g>
   </g>
   <g id="xtick_5">
    <g id="line2d_6">
     <path d="M 263.194983 226.938499 
L 267.073686 228.325394 
" style="fill:none;stroke:#000000;stroke-linecap:square;stroke-width:0.8;"/>
    </g>
    <g id="text_6">
     <!-- 110 -->
     <g transform="translate(265.794954 247.245532)scale(0.1 -0.1)">
      <use xlink:href="#DejaVuSans-49"/>
      <use x="63.623047" xlink:href="#DejaVuSans-49"/>
      <use x="127.246094" xlink:href="#DejaVuSans-48"/>
     </g>
    </g>
   </g>
   <g id="xtick_6">
    <g id="line2d_7">
     <path d="M 241.291433 235.134809 
L 245.171463 236.547341 
" style="fill:none;stroke:#000000;stroke-linecap:square;stroke-width:0.8;"/>
    </g>
    <g id="text_7">
     <!-- 120 -->
     <defs>
      <path d="M 19.1875 8.296875 
L 53.609375 8.296875 
L 53.609375 0 
L 7.328125 0 
L 7.328125 8.296875 
Q 12.9375 14.109375 22.625 23.890625 
Q 32.328125 33.6875 34.8125 36.53125 
Q 39.546875 41.84375 41.421875 45.53125 
Q 43.3125 49.21875 43.3125 52.78125 
Q 43.3125 58.59375 39.234375 62.25 
Q 35.15625 65.921875 28.609375 65.921875 
Q 23.96875 65.921875 18.8125 64.3125 
Q 13.671875 62.703125 7.8125 59.421875 
L 7.8125 69.390625 
Q 13.765625 71.78125 18.9375 73 
Q 24.125 74.21875 28.421875 74.21875 
Q 39.75 74.21875 46.484375 68.546875 
Q 53.21875 62.890625 53.21875 53.421875 
Q 53.21875 48.921875 51.53125 44.890625 
Q 49.859375 40.875 45.40625 35.40625 
Q 44.1875 33.984375 37.640625 27.21875 
Q 31.109375 20.453125 19.1875 8.296875 
z
" id="DejaVuSans-50"/>
     </defs>
     <g transform="translate(243.973755 255.569849)scale(0.1 -0.1)">
      <use xlink:href="#DejaVuSans-49"/>
      <use x="63.623047" xlink:href="#DejaVuSans-50"/>
      <use x="127.246094" xlink:href="#DejaVuSans-48"/>
     </g>
    </g>
   </g>
   <g id="xtick_7">
    <g id="line2d_8">
     <path d="M 218.981415 243.483219 
L 222.862153 244.922106 
" style="fill:none;stroke:#000000;stroke-linecap:square;stroke-width:0.8;"/>
    </g>
    <g id="text_8">
     <!-- 130 -->
     <defs>
      <path d="M 40.578125 39.3125 
Q 47.65625 37.796875 51.625 33 
Q 55.609375 28.21875 55.609375 21.1875 
Q 55.609375 10.40625 48.1875 4.484375 
Q 40.765625 -1.421875 27.09375 -1.421875 
Q 22.515625 -1.421875 17.65625 -0.515625 
Q 12.796875 0.390625 7.625 2.203125 
L 7.625 11.71875 
Q 11.71875 9.328125 16.59375 8.109375 
Q 21.484375 6.890625 26.8125 6.890625 
Q 36.078125 6.890625 40.9375 10.546875 
Q 45.796875 14.203125 45.796875 21.1875 
Q 45.796875 27.640625 41.28125 31.265625 
Q 36.765625 34.90625 28.71875 34.90625 
L 20.21875 34.90625 
L 20.21875 43.015625 
L 29.109375 43.015625 
Q 36.375 43.015625 40.234375 45.921875 
Q 44.09375 48.828125 44.09375 54.296875 
Q 44.09375 59.90625 40.109375 62.90625 
Q 36.140625 65.921875 28.71875 65.921875 
Q 24.65625 65.921875 20.015625 65.03125 
Q 15.375 64.15625 9.8125 62.3125 
L 9.8125 71.09375 
Q 15.4375 72.65625 20.34375 73.4375 
Q 25.25 74.21875 29.59375 74.21875 
Q 40.828125 74.21875 47.359375 69.109375 
Q 53.90625 64.015625 53.90625 55.328125 
Q 53.90625 49.265625 50.4375 45.09375 
Q 46.96875 40.921875 40.578125 39.3125 
z
" id="DejaVuSans-51"/>
     </defs>
     <g transform="translate(221.747067 264.04885)scale(0.1 -0.1)">
      <use xlink:href="#DejaVuSans-49"/>
      <use x="63.623047" xlink:href="#DejaVuSans-51"/>
      <use x="127.246094" xlink:href="#DejaVuSans-48"/>
     </g>
    </g>
   </g>
  </g>
  <g id="axis3d_2">
   <g id="line2d_9">
    <path d="M 56.209763 191.865884 
L 207.778378 248.643025 
" style="fill:none;stroke:#000000;stroke-linecap:square;stroke-width:0.8;"/>
   </g>
   <g id="text_9">
    <!-- F2 -->
    <g transform="translate(100.067452 248.496691)scale(0.1 -0.1)">
     <use xlink:href="#DejaVuSans-70"/>
     <use x="57.519531" xlink:href="#DejaVuSans-50"/>
    </g>
   </g>
   <g id="Line3DCollection_2">
    <path d="M 224.159957 27.043896 
L 223.372069 146.892731 
L 71.749362 197.68697 
" style="fill:none;stroke:#b0b0b0;stroke-width:0.8;"/>
    <path d="M 252.937566 35.153679 
L 250.741362 155.945014 
L 99.053631 207.915066 
" style="fill:none;stroke:#b0b0b0;stroke-width:0.8;"/>
    <path d="M 282.398022 43.455894 
L 278.728146 165.201528 
L 127.013406 218.388713 
" style="fill:none;stroke:#b0b0b0;stroke-width:0.8;"/>
    <path d="M 312.565921 51.957472 
L 307.353555 174.669266 
L 155.652581 229.11686 
" style="fill:none;stroke:#b0b0b0;stroke-width:0.8;"/>
    <path d="M 343.467054 60.665682 
L 336.639702 184.35554 
L 184.996224 240.108899 
" style="fill:none;stroke:#b0b0b0;stroke-width:0.8;"/>
   </g>
   <g id="xtick_8">
    <g id="line2d_10">
     <path d="M 73.037622 197.255398 
L 69.168968 198.551413 
" style="fill:none;stroke:#000000;stroke-linecap:square;stroke-width:0.8;"/>
    </g>
    <g id="text_10">
     <!-- 250 -->
     <defs>
      <path d="M 10.796875 72.90625 
L 49.515625 72.90625 
L 49.515625 64.59375 
L 19.828125 64.59375 
L 19.828125 46.734375 
Q 21.96875 47.46875 24.109375 47.828125 
Q 26.265625 48.1875 28.421875 48.1875 
Q 40.625 48.1875 47.75 41.5 
Q 54.890625 34.8125 54.890625 23.390625 
Q 54.890625 11.625 47.5625 5.09375 
Q 40.234375 -1.421875 26.90625 -1.421875 
Q 22.3125 -1.421875 17.546875 -0.640625 
Q 12.796875 0.140625 7.71875 1.703125 
L 7.71875 11.625 
Q 12.109375 9.234375 16.796875 8.0625 
Q 21.484375 6.890625 26.703125 6.890625 
Q 35.15625 6.890625 40.078125 11.328125 
Q 45.015625 15.765625 45.015625 23.390625 
Q 45.015625 31 40.078125 35.4375 
Q 35.15625 39.890625 26.703125 39.890625 
Q 22.75 39.890625 18.8125 39.015625 
Q 14.890625 38.140625 10.796875 36.28125 
z
" id="DejaVuSans-53"/>
     </defs>
     <g transform="translate(51.65286 217.100557)scale(0.1 -0.1)">
      <use xlink:href="#DejaVuSans-50"/>
      <use x="63.623047" xlink:href="#DejaVuSans-53"/>
      <use x="127.246094" xlink:href="#DejaVuSans-48"/>
     </g>
    </g>
   </g>
   <g id="xtick_9">
    <g id="line2d_11">
     <path d="M 100.343336 207.473197 
L 96.470295 208.800148 
" style="fill:none;stroke:#000000;stroke-linecap:square;stroke-width:0.8;"/>
    </g>
    <g id="text_11">
     <!-- 300 -->
     <g transform="translate(78.853582 227.477046)scale(0.1 -0.1)">
      <use xlink:href="#DejaVuSans-51"/>
      <use x="63.623047" xlink:href="#DejaVuSans-48"/>
      <use x="127.246094" xlink:href="#DejaVuSans-48"/>
     </g>
    </g>
   </g>
   <g id="xtick_10">
    <g id="line2d_12">
     <path d="M 128.304255 217.936175 
L 124.427732 219.295182 
" style="fill:none;stroke:#000000;stroke-linecap:square;stroke-width:0.8;"/>
    </g>
    <g id="text_12">
     <!-- 350 -->
     <g transform="translate(106.70785 238.102848)scale(0.1 -0.1)">
      <use xlink:href="#DejaVuSans-51"/>
      <use x="63.623047" xlink:href="#DejaVuSans-53"/>
      <use x="127.246094" xlink:href="#DejaVuSans-48"/>
     </g>
    </g>
   </g>
   <g id="xtick_11">
    <g id="line2d_13">
     <path d="M 156.94425 228.653262 
L 153.065218 230.045501 
" style="fill:none;stroke:#000000;stroke-linecap:square;stroke-width:0.8;"/>
    </g>
    <g id="text_13">
     <!-- 400 -->
     <defs>
      <path d="M 37.796875 64.3125 
L 12.890625 25.390625 
L 37.796875 25.390625 
z
M 35.203125 72.90625 
L 47.609375 72.90625 
L 47.609375 25.390625 
L 58.015625 25.390625 
L 58.015625 17.1875 
L 47.609375 17.1875 
L 47.609375 0 
L 37.796875 0 
L 37.796875 17.1875 
L 4.890625 17.1875 
L 4.890625 26.703125 
z
" id="DejaVuSans-52"/>
     </defs>
     <g transform="translate(135.239506 248.987059)scale(0.1 -0.1)">
      <use xlink:href="#DejaVuSans-52"/>
      <use x="63.623047" xlink:href="#DejaVuSans-48"/>
      <use x="127.246094" xlink:href="#DejaVuSans-48"/>
     </g>
    </g>
   </g>
   <g id="xtick_12">
    <g id="line2d_14">
     <path d="M 186.288362 239.633831 
L 182.40787 241.060536 
" style="fill:none;stroke:#000000;stroke-linecap:square;stroke-width:0.8;"/>
    </g>
    <g id="text_14">
     <!-- 450 -->
     <g transform="translate(164.473563 260.139221)scale(0.1 -0.1)">
      <use xlink:href="#DejaVuSans-52"/>
      <use x="63.623047" xlink:href="#DejaVuSans-53"/>
      <use x="127.246094" xlink:href="#DejaVuSans-48"/>
     </g>
    </g>
   </g>
  </g>
  <g id="axis3d_3">
   <g id="line2d_15">
    <path d="M 56.209763 191.865884 
L 48.10449 67.424925 
" style="fill:none;stroke:#000000;stroke-linecap:square;stroke-width:0.8;"/>
   </g>
   <g id="text_15">
    <!-- F3 -->
    <g transform="translate(-0.042675 134.025105)scale(0.1 -0.1)">
     <use xlink:href="#DejaVuSans-70"/>
     <use x="57.519531" xlink:href="#DejaVuSans-51"/>
    </g>
   </g>
   <g id="Line3DCollection_3">
    <path d="M 55.124916 175.210136 
L 207.778378 125.723211 
L 360.43184 175.210136 
" style="fill:none;stroke:#b0b0b0;stroke-width:0.8;"/>
    <path d="M 53.547918 150.998342 
L 207.778378 102.471151 
L 362.008839 150.998342 
" style="fill:none;stroke:#b0b0b0;stroke-width:0.8;"/>
    <path d="M 51.937997 126.281082 
L 207.778378 78.762827 
L 363.61876 126.281082 
" style="fill:none;stroke:#b0b0b0;stroke-width:0.8;"/>
    <path d="M 50.294111 101.042362 
L 207.778378 54.584677 
L 365.262646 101.042362 
" style="fill:none;stroke:#b0b0b0;stroke-width:0.8;"/>
    <path d="M 48.615174 75.265502 
L 207.778378 29.922594 
L 366.941583 75.265502 
" style="fill:none;stroke:#b0b0b0;stroke-width:0.8;"/>
   </g>
   <g id="xtick_13">
    <g id="line2d_16">
     <path d="M 56.421961 174.789662 
L 52.526924 176.052349 
" style="fill:none;stroke:#000000;stroke-linecap:square;stroke-width:0.8;"/>
    </g>
    <g id="text_16">
     <!-- 0.75 -->
     <defs>
      <path d="M 10.6875 12.40625 
L 21 12.40625 
L 21 0 
L 10.6875 0 
z
" id="DejaVuSans-46"/>
     </defs>
     <g transform="translate(23.109433 182.808574)scale(0.1 -0.1)">
      <use xlink:href="#DejaVuSans-48"/>
      <use x="63.623047" xlink:href="#DejaVuSans-46"/>
      <use x="95.410156" xlink:href="#DejaVuSans-55"/>
      <use x="159.033203" xlink:href="#DejaVuSans-53"/>
     </g>
    </g>
   </g>
   <g id="xtick_14">
    <g id="line2d_17">
     <path d="M 54.859153 150.585774 
L 50.921462 151.824732 
" style="fill:none;stroke:#000000;stroke-linecap:square;stroke-width:0.8;"/>
    </g>
    <g id="text_17">
     <!-- 0.80 -->
     <g transform="translate(21.316704 158.596779)scale(0.1 -0.1)">
      <use xlink:href="#DejaVuSans-48"/>
      <use x="63.623047" xlink:href="#DejaVuSans-46"/>
      <use x="95.410156" xlink:href="#DejaVuSans-56"/>
      <use x="159.033203" xlink:href="#DejaVuSans-48"/>
     </g>
    </g>
   </g>
   <g id="xtick_15">
    <g id="line2d_18">
     <path d="M 53.263735 125.876843 
L 49.282448 127.090802 
" style="fill:none;stroke:#000000;stroke-linecap:square;stroke-width:0.8;"/>
    </g>
    <g id="text_18">
     <!-- 0.85 -->
     <g transform="translate(19.486549 133.87952)scale(0.1 -0.1)">
      <use xlink:href="#DejaVuSans-48"/>
      <use x="63.623047" xlink:href="#DejaVuSans-46"/>
      <use x="95.410156" xlink:href="#DejaVuSans-56"/>
      <use x="159.033203" xlink:href="#DejaVuSans-53"/>
     </g>
    </g>
   </g>
   <g id="xtick_16">
    <g id="line2d_19">
     <path d="M 51.634675 100.646897 
L 47.608821 101.834519 
" style="fill:none;stroke:#000000;stroke-linecap:square;stroke-width:0.8;"/>
    </g>
    <g id="text_19">
     <!-- 0.90 -->
     <g transform="translate(17.617783 108.640799)scale(0.1 -0.1)">
      <use xlink:href="#DejaVuSans-48"/>
      <use x="63.623047" xlink:href="#DejaVuSans-46"/>
      <use x="95.410156" xlink:href="#DejaVuSans-57"/>
      <use x="159.033203" xlink:href="#DejaVuSans-48"/>
     </g>
    </g>
   </g>
   <g id="xtick_17">
    <g id="line2d_20">
     <path d="M 49.970899 74.879279 
L 45.899471 76.03916 
" style="fill:none;stroke:#000000;stroke-linecap:square;stroke-width:0.8;"/>
    </g>
    <g id="text_20">
     <!-- 0.95 -->
     <g transform="translate(15.709171 82.863939)scale(0.1 -0.1)">
      <use xlink:href="#DejaVuSans-48"/>
      <use x="63.623047" xlink:href="#DejaVuSans-46"/>
      <use x="95.410156" xlink:href="#DejaVuSans-57"/>
      <use x="159.033203" xlink:href="#DejaVuSans-53"/>
     </g>
    </g>
   </g>
  </g>
  <g id="axes_1">
   <g id="line2d_21">
    <defs>
     <path d="M 0 1.5 
C 0.397805 1.5 0.77937 1.341951 1.06066 1.06066 
C 1.341951 0.77937 1.5 0.397805 1.5 0 
C 1.5 -0.397805 1.341951 -0.77937 1.06066 -1.06066 
C 0.77937 -1.341951 0.397805 -1.5 0 -1.5 
C -0.397805 -1.5 -0.77937 -1.341951 -1.06066 -1.06066 
C -1.341951 -0.77937 -1.5 -0.397805 -1.5 0 
C -1.5 0.397805 -1.341951 0.77937 -1.06066 1.06066 
C -0.77937 1.341951 -0.397805 1.5 0 1.5 
z
" id="mf01cdd166d" style="stroke:#4682b4;"/>
    </defs>
    <g clip-path="url(#pf48e53e38a)">
     <use style="fill:#4682b4;stroke:#4682b4;" x="125.344646" xlink:href="#mf01cdd166d" y="136.257517"/>
     <use style="fill:#4682b4;stroke:#4682b4;" x="143.238908" xlink:href="#mf01cdd166d" y="84.862319"/>
     <use style="fill:#4682b4;stroke:#4682b4;" x="339.424882" xlink:href="#mf01cdd166d" y="67.889989"/>
     <use style="fill:#4682b4;stroke:#4682b4;" x="196.411328" xlink:href="#mf01cdd166d" y="85.200306"/>
     <use style="fill:#4682b4;stroke:#4682b4;" x="214.644059" xlink:href="#mf01cdd166d" y="88.140416"/>
     <use style="fill:#4682b4;stroke:#4682b4;" x="312.376044" xlink:href="#mf01cdd166d" y="131.670657"/>
     <use style="fill:#4682b4;stroke:#4682b4;" x="242.443524" xlink:href="#mf01cdd166d" y="89.973035"/>
     <use style="fill:#4682b4;stroke:#4682b4;" x="342.73942" xlink:href="#mf01cdd166d" y="71.399674"/>
     <use style="fill:#4682b4;stroke:#4682b4;" x="161.254989" xlink:href="#mf01cdd166d" y="87.799774"/>
     <use style="fill:#4682b4;stroke:#4682b4;" x="300.834454" xlink:href="#mf01cdd166d" y="130.813017"/>
     <use style="fill:#4682b4;stroke:#4682b4;" x="300.282018" xlink:href="#mf01cdd166d" y="169.27804"/>
     <use style="fill:#4682b4;stroke:#4682b4;" x="143.238908" xlink:href="#mf01cdd166d" y="84.862319"/>
     <use style="fill:#4682b4;stroke:#4682b4;" x="300.282018" xlink:href="#mf01cdd166d" y="169.27804"/>
     <use style="fill:#4682b4;stroke:#4682b4;" x="312.376044" xlink:href="#mf01cdd166d" y="131.670657"/>
     <use style="fill:#4682b4;stroke:#4682b4;" x="242.443524" xlink:href="#mf01cdd166d" y="89.973035"/>
     <use style="fill:#4682b4;stroke:#4682b4;" x="176.614399" xlink:href="#mf01cdd166d" y="139.141105"/>
     <use style="fill:#4682b4;stroke:#4682b4;" x="214.644059" xlink:href="#mf01cdd166d" y="88.140416"/>
     <use style="fill:#4682b4;stroke:#4682b4;" x="75.365885" xlink:href="#mf01cdd166d" y="189.501"/>
     <use style="fill:#4682b4;stroke:#4682b4;" x="214.644059" xlink:href="#mf01cdd166d" y="88.140416"/>
     <use style="fill:#4682b4;stroke:#4682b4;" x="196.411328" xlink:href="#mf01cdd166d" y="85.200306"/>
     <use style="fill:#4682b4;stroke:#4682b4;" x="242.443524" xlink:href="#mf01cdd166d" y="89.973035"/>
     <use style="fill:#4682b4;stroke:#4682b4;" x="176.614399" xlink:href="#mf01cdd166d" y="139.141105"/>
     <use style="fill:#4682b4;stroke:#4682b4;" x="75.365885" xlink:href="#mf01cdd166d" y="189.501"/>
     <use style="fill:#4682b4;stroke:#4682b4;" x="75.365885" xlink:href="#mf01cdd166d" y="189.501"/>
     <use style="fill:#4682b4;stroke:#4682b4;" x="342.73942" xlink:href="#mf01cdd166d" y="71.399674"/>
     <use style="fill:#4682b4;stroke:#4682b4;" x="214.644059" xlink:href="#mf01cdd166d" y="88.140416"/>
     <use style="fill:#4682b4;stroke:#4682b4;" x="214.644059" xlink:href="#mf01cdd166d" y="88.140416"/>
     <use style="fill:#4682b4;stroke:#4682b4;" x="75.365885" xlink:href="#mf01cdd166d" y="189.501"/>
     <use style="fill:#4682b4;stroke:#4682b4;" x="242.443524" xlink:href="#mf01cdd166d" y="89.973035"/>
     <use style="fill:#4682b4;stroke:#4682b4;" x="242.443524" xlink:href="#mf01cdd166d" y="89.973035"/>
     <use style="fill:#4682b4;stroke:#4682b4;" x="214.644059" xlink:href="#mf01cdd166d" y="88.140416"/>
     <use style="fill:#4682b4;stroke:#4682b4;" x="300.282018" xlink:href="#mf01cdd166d" y="169.27804"/>
     <use style="fill:#4682b4;stroke:#4682b4;" x="143.238908" xlink:href="#mf01cdd166d" y="84.862319"/>
     <use style="fill:#4682b4;stroke:#4682b4;" x="300.282018" xlink:href="#mf01cdd166d" y="169.27804"/>
     <use style="fill:#4682b4;stroke:#4682b4;" x="300.834454" xlink:href="#mf01cdd166d" y="130.813017"/>
     <use style="fill:#4682b4;stroke:#4682b4;" x="312.376044" xlink:href="#mf01cdd166d" y="131.670657"/>
     <use style="fill:#4682b4;stroke:#4682b4;" x="312.376044" xlink:href="#mf01cdd166d" y="131.670657"/>
     <use style="fill:#4682b4;stroke:#4682b4;" x="339.424882" xlink:href="#mf01cdd166d" y="67.889989"/>
     <use style="fill:#4682b4;stroke:#4682b4;" x="300.282018" xlink:href="#mf01cdd166d" y="169.27804"/>
     <use style="fill:#4682b4;stroke:#4682b4;" x="300.834454" xlink:href="#mf01cdd166d" y="130.813017"/>
     <use style="fill:#4682b4;stroke:#4682b4;" x="75.365885" xlink:href="#mf01cdd166d" y="189.501"/>
     <use style="fill:#4682b4;stroke:#4682b4;" x="214.644059" xlink:href="#mf01cdd166d" y="88.140416"/>
     <use style="fill:#4682b4;stroke:#4682b4;" x="312.376044" xlink:href="#mf01cdd166d" y="131.670657"/>
     <use style="fill:#4682b4;stroke:#4682b4;" x="342.73942" xlink:href="#mf01cdd166d" y="71.399674"/>
     <use style="fill:#4682b4;stroke:#4682b4;" x="300.282018" xlink:href="#mf01cdd166d" y="169.27804"/>
     <use style="fill:#4682b4;stroke:#4682b4;" x="176.614399" xlink:href="#mf01cdd166d" y="139.141105"/>
     <use style="fill:#4682b4;stroke:#4682b4;" x="143.238908" xlink:href="#mf01cdd166d" y="84.862319"/>
     <use style="fill:#4682b4;stroke:#4682b4;" x="196.411328" xlink:href="#mf01cdd166d" y="85.200306"/>
     <use style="fill:#4682b4;stroke:#4682b4;" x="242.443524" xlink:href="#mf01cdd166d" y="89.973035"/>
     <use style="fill:#4682b4;stroke:#4682b4;" x="339.424882" xlink:href="#mf01cdd166d" y="67.889989"/>
     <use style="fill:#4682b4;stroke:#4682b4;" x="339.424882" xlink:href="#mf01cdd166d" y="67.889989"/>
     <use style="fill:#4682b4;stroke:#4682b4;" x="312.376044" xlink:href="#mf01cdd166d" y="131.670657"/>
     <use style="fill:#4682b4;stroke:#4682b4;" x="300.282018" xlink:href="#mf01cdd166d" y="169.27804"/>
     <use style="fill:#4682b4;stroke:#4682b4;" x="300.834454" xlink:href="#mf01cdd166d" y="130.813017"/>
     <use style="fill:#4682b4;stroke:#4682b4;" x="75.365885" xlink:href="#mf01cdd166d" y="189.501"/>
     <use style="fill:#4682b4;stroke:#4682b4;" x="143.238908" xlink:href="#mf01cdd166d" y="84.862319"/>
     <use style="fill:#4682b4;stroke:#4682b4;" x="312.376044" xlink:href="#mf01cdd166d" y="131.670657"/>
     <use style="fill:#4682b4;stroke:#4682b4;" x="300.282018" xlink:href="#mf01cdd166d" y="169.27804"/>
     <use style="fill:#4682b4;stroke:#4682b4;" x="339.424882" xlink:href="#mf01cdd166d" y="67.889989"/>
     <use style="fill:#4682b4;stroke:#4682b4;" x="300.834454" xlink:href="#mf01cdd166d" y="130.813017"/>
     <use style="fill:#4682b4;stroke:#4682b4;" x="242.443524" xlink:href="#mf01cdd166d" y="89.973035"/>
     <use style="fill:#4682b4;stroke:#4682b4;" x="312.376044" xlink:href="#mf01cdd166d" y="131.670657"/>
     <use style="fill:#4682b4;stroke:#4682b4;" x="143.238908" xlink:href="#mf01cdd166d" y="84.862319"/>
     <use style="fill:#4682b4;stroke:#4682b4;" x="300.282018" xlink:href="#mf01cdd166d" y="169.27804"/>
     <use style="fill:#4682b4;stroke:#4682b4;" x="176.614399" xlink:href="#mf01cdd166d" y="139.141105"/>
     <use style="fill:#4682b4;stroke:#4682b4;" x="342.73942" xlink:href="#mf01cdd166d" y="71.399674"/>
     <use style="fill:#4682b4;stroke:#4682b4;" x="143.238908" xlink:href="#mf01cdd166d" y="84.862319"/>
     <use style="fill:#4682b4;stroke:#4682b4;" x="339.424882" xlink:href="#mf01cdd166d" y="67.889989"/>
     <use style="fill:#4682b4;stroke:#4682b4;" x="214.644059" xlink:href="#mf01cdd166d" y="88.140416"/>
     <use style="fill:#4682b4;stroke:#4682b4;" x="196.411328" xlink:href="#mf01cdd166d" y="85.200306"/>
     <use style="fill:#4682b4;stroke:#4682b4;" x="176.614399" xlink:href="#mf01cdd166d" y="139.141105"/>
     <use style="fill:#4682b4;stroke:#4682b4;" x="196.411328" xlink:href="#mf01cdd166d" y="85.200306"/>
     <use style="fill:#4682b4;stroke:#4682b4;" x="300.834454" xlink:href="#mf01cdd166d" y="130.813017"/>
     <use style="fill:#4682b4;stroke:#4682b4;" x="176.614399" xlink:href="#mf01cdd166d" y="139.141105"/>
     <use style="fill:#4682b4;stroke:#4682b4;" x="342.73942" xlink:href="#mf01cdd166d" y="71.399674"/>
     <use style="fill:#4682b4;stroke:#4682b4;" x="143.238908" xlink:href="#mf01cdd166d" y="84.862319"/>
     <use style="fill:#4682b4;stroke:#4682b4;" x="196.411328" xlink:href="#mf01cdd166d" y="85.200306"/>
     <use style="fill:#4682b4;stroke:#4682b4;" x="339.424882" xlink:href="#mf01cdd166d" y="67.889989"/>
     <use style="fill:#4682b4;stroke:#4682b4;" x="242.443524" xlink:href="#mf01cdd166d" y="89.973035"/>
     <use style="fill:#4682b4;stroke:#4682b4;" x="196.411328" xlink:href="#mf01cdd166d" y="85.200306"/>
     <use style="fill:#4682b4;stroke:#4682b4;" x="300.834454" xlink:href="#mf01cdd166d" y="130.813017"/>
     <use style="fill:#4682b4;stroke:#4682b4;" x="339.424882" xlink:href="#mf01cdd166d" y="67.889989"/>
     <use style="fill:#4682b4;stroke:#4682b4;" x="342.73942" xlink:href="#mf01cdd166d" y="71.399674"/>
     <use style="fill:#4682b4;stroke:#4682b4;" x="161.254989" xlink:href="#mf01cdd166d" y="87.799774"/>
     <use style="fill:#4682b4;stroke:#4682b4;" x="196.411328" xlink:href="#mf01cdd166d" y="85.200306"/>
     <use style="fill:#4682b4;stroke:#4682b4;" x="196.411328" xlink:href="#mf01cdd166d" y="85.200306"/>
     <use style="fill:#4682b4;stroke:#4682b4;" x="342.73942" xlink:href="#mf01cdd166d" y="71.399674"/>
     <use style="fill:#4682b4;stroke:#4682b4;" x="300.834454" xlink:href="#mf01cdd166d" y="130.813017"/>
     <use style="fill:#4682b4;stroke:#4682b4;" x="342.73942" xlink:href="#mf01cdd166d" y="71.399674"/>
     <use style="fill:#4682b4;stroke:#4682b4;" x="342.73942" xlink:href="#mf01cdd166d" y="71.399674"/>
     <use style="fill:#4682b4;stroke:#4682b4;" x="75.365885" xlink:href="#mf01cdd166d" y="189.501"/>
    </g>
   </g>
  </g>
 </g>
 <defs>
  <clipPath id="pf48e53e38a">
   <rect height="255.024" width="390.6" x="7.2" y="7.2"/>
  </clipPath>
 </defs>
</svg>
